# xmcd
# Copyright (C) 1995-1998 Ti Kan
#
# Track frame offsets:
#       150
#       16440
#       30995
#       48473
#       60426
#       74438
#       90522
#       108795
#       124765
#       139483
#       154796
#       180442
#
# Disc length: 2749 seconds
#
# Revision: 0
# Processed by: cddbd v1.5.1PL2 Copyright (c) Steve Scherf et al.
# Submitted via: CD-Transfer v1.0
#
DISCID=970abb0c
DTITLE=Jasmin Paan - 
DYEAR=2006
DGENRE=
TTITLE0=Empty Rooms
TTITLE1=Will You Ever
TTITLE2=Only One (You Make Me Feel Good)
TTITLE3=I See Through You
TTITLE4=How Will I Know
TTITLE5=I Was Made For Lovin' You
TTITLE6=Why Don't You Try
TTITLE7=A New Temptation
TTITLE8=Here To Stay
TTITLE9=Inside Out
TTITLE10=Only One (Remix)
TTITLE11=How Will I Know (Remix)
EXTD=
EXTT0=
EXTT1=
EXTT2=
EXTT3=
EXTT4=
EXTT5=
EXTT6=
EXTT7=
EXTT8=
EXTT9=
EXTT10=
EXTT11=
PLAYORDER=
